<?xml version="1.0" standalone="no"?>
<!DOCTYPE svg PUBLIC "-//W3C//DTD SVG 20010904//EN"
 "http://www.w3.org/TR/2001/REC-SVG-20010904/DTD/svg10.dtd">
<svg version="1.0" xmlns="http://www.w3.org/2000/svg"
 width="512.000000pt" height="512.000000pt" viewBox="0 0 512.000000 512.000000"
 preserveAspectRatio="xMidYMid meet">
<metadata>
Created by potrace 1.11, written by Peter Selinger 2001-2013
</metadata>
<g transform="translate(0.000000,512.000000) scale(0.100000,-0.100000)"
fill="#000000" stroke="none">
<path d="M1069 5066 c-2 -2 -29 -7 -58 -10 -66 -8 -149 -30 -246 -65 -11 -4
-51 -23 -88 -41 -275 -136 -480 -375 -571 -665 -57 -181 -55 -114 -55 -1720 0
-1613 -1 -1566 60 -1749 134 -398 469 -679 899 -753 58 -10 3042 -10 3095 0
119 23 110 20 165 36 25 7 76 26 114 42 318 135 568 427 649 759 9 36 20 79
24 95 12 50 16 2966 3 3074 -30 264 -148 503 -340 689 -104 100 -277 206 -410
249 -194 64 -134 61 -1756 62 -814 0 -1483 -1 -1485 -3z"/>
</g>
</svg>
